<?xml version="1.0" encoding="UTF-8"?>
<!DOCTYPE svg PUBLIC "-//W3C//DTD SVG 1.0//EN" "http://www.w3.org/TR/2001/REC-SVG-20010904/DTD/svg10.dtd">
<!-- Creator: CorelDRAW -->
<svg xmlns="http://www.w3.org/2000/svg" xml:space="preserve" width="440px" height="454px" version="1.0" shape-rendering="geometricPrecision" text-rendering="geometricPrecision" image-rendering="optimizeQuality" fill-rule="evenodd" clip-rule="evenodd"
viewBox="0 0 107.36 110.94"
 xmlns:xlink="http://www.w3.org/1999/xlink"
 xmlns:xodm="http://www.corel.com/coreldraw/odm/2003">
 <g id="Layer_x0020_1">
  <metadata id="CorelCorpID_0Corel-Layer"/>
  <path id="path4145" fill="#F0BAD4" stroke="#F0BAD4" stroke-width="1.44" stroke-miterlimit="2.61313" d="M25.36 41.56c0,0 4.9,22 28.46,36.14 23.57,-14.14 28.51,-36.14 28.51,-36.14 7.51,-39.42 -28.51,-12.85 -28.51,-12.85 0,0 -35.97,-26.57 -28.46,12.85zm-4.44 -1.15c0,0 5.67,23.23 32.97,38.16 27.3,-14.93 33.03,-38.17 33.03,-38.17 8.7,-41.63 -33.03,-13.57 -33.03,-13.57 0,0 -41.67,-28.05 -32.97,13.58l0 0zm32.87 -39.69c4.6,0 8.34,4.2 8.34,9.37 0,5.18 -3.74,9.37 -8.34,9.37 -4.61,0 -8.34,-4.19 -8.34,-9.37 0,-5.17 3.73,-9.37 8.34,-9.37z" inkscape:connector-curvature="0"/>
  <path id="path4170" fill="#E61794" stroke="#E61794" stroke-width="1.44" stroke-miterlimit="2.61313" d="M84.47 47.65c0,0 -21.5,-6.76 -45.53,6.58 0.47,27.48 17.05,42.76 17.05,42.76 30.39,26.21 25.38,-18.26 25.38,-18.26 0,0 40.99,-17.87 3.1,-31.08zm3.22 -3.27c0,0 -22.96,-6.7 -49.53,9.48 -0.72,31.11 16.54,47.68 16.54,47.68 31.7,28.35 28.26,-21.81 28.26,-21.81 0,0 45.13,-22.06 4.73,-35.35zm1.32 39.86c1.99,-4.16 7.39,-5.7 12.06,-3.46 4.66,2.25 6.82,7.43 4.82,11.58 -2,4.16 -7.4,5.7 -12.06,3.46 -4.66,-2.25 -6.82,-7.43 -4.82,-11.58z" inkscape:connector-curvature="0"/>
  <path id="path4164" fill="#E86EAD" stroke="#E86EAD" stroke-width="1.44" stroke-miterlimit="2.61313" d="M51.38 97.1c0,0 16.6,-15.24 17.06,-42.71 -24.02,-13.34 -45.55,-6.62 -45.55,-6.62 -37.89,13.21 3.12,31.11 3.12,31.11 0,0 -5.02,44.43 25.37,18.22l0 0zm1.22 4.42c0,0 17.28,-16.52 16.56,-47.63 -26.58,-16.18 -49.56,-9.52 -49.56,-9.52 -40.41,13.28 4.76,35.39 4.76,35.39 0,0 -3.46,50.11 28.24,21.76l0 0zm-34.17 -17.07c1.93,4.18 -0.31,9.33 -5.01,11.5 -4.7,2.17 -10.07,0.54 -12.01,-3.64 -1.93,-4.19 0.31,-9.34 5.01,-11.51 4.7,-2.17 10.08,-0.53 12.01,3.65z" inkscape:connector-curvature="0"/>
 </g>
</svg>
